<?xml version="1.0" encoding="UTF-8"?>
<svg xmlns="http://www.w3.org/2000/svg" viewBox="0 0 512 512" width="512" height="512">
<rect x="0.00" y="0.00" width="512.00" height="512.00" fill="#001133"/>
<rect x="25.6" y="25.6" width="460.8" height="460.8" fill="none" stroke="#ff3030" stroke-width="12.8"/>
<line x1="25.0" y1="25.6" x2="25.0" y2="486.4" stroke="#00e5ff" stroke-width="1.0" stroke-opacity="0.12"/>
<line x1="67.0" y1="25.6" x2="67.0" y2="486.4" stroke="#00e5ff" stroke-width="1.0" stroke-opacity="0.12"/>
<line x1="109.0" y1="25.6" x2="109.0" y2="486.4" stroke="#00e5ff" stroke-width="1.0" stroke-opacity="0.12"/>
<line x1="151.0" y1="25.6" x2="151.0" y2="486.4" stroke="#00e5ff" stroke-width="1.0" stroke-opacity="0.12"/>
<line x1="193.0" y1="25.6" x2="193.0" y2="486.4" stroke="#00e5ff" stroke-width="1.0" stroke-opacity="0.12"/>
<line x1="235.0" y1="25.6" x2="235.0" y2="486.4" stroke="#00e5ff" stroke-width="1.0" stroke-opacity="0.12"/>
<line x1="277.0" y1="25.6" x2="277.0" y2="486.4" stroke="#00e5ff" stroke-width="1.0" stroke-opacity="0.12"/>
<line x1="319.0" y1="25.6" x2="319.0" y2="486.4" stroke="#00e5ff" stroke-width="1.0" stroke-opacity="0.12"/>
<line x1="361.0" y1="25.6" x2="361.0" y2="486.4" stroke="#00e5ff" stroke-width="1.0" stroke-opacity="0.12"/>
<line x1="403.0" y1="25.6" x2="403.0" y2="486.4" stroke="#00e5ff" stroke-width="1.0" stroke-opacity="0.12"/>
<line x1="445.0" y1="25.6" x2="445.0" y2="486.4" stroke="#00e5ff" stroke-width="1.0" stroke-opacity="0.12"/>
<line x1="25.6" y1="25.0" x2="486.4" y2="25.0" stroke="#00e5ff" stroke-width="1.0" stroke-opacity="0.12"/>
<line x1="25.6" y1="67.0" x2="486.4" y2="67.0" stroke="#00e5ff" stroke-width="1.0" stroke-opacity="0.12"/>
<line x1="25.6" y1="109.0" x2="486.4" y2="109.0" stroke="#00e5ff" stroke-width="1.0" stroke-opacity="0.12"/>
<line x1="25.6" y1="151.0" x2="486.4" y2="151.0" stroke="#00e5ff" stroke-width="1.0" stroke-opacity="0.12"/>
<line x1="25.6" y1="193.0" x2="486.4" y2="193.0" stroke="#00e5ff" stroke-width="1.0" stroke-opacity="0.12"/>
<line x1="25.6" y1="235.0" x2="486.4" y2="235.0" stroke="#00e5ff" stroke-width="1.0" stroke-opacity="0.12"/>
<line x1="25.6" y1="277.0" x2="486.4" y2="277.0" stroke="#00e5ff" stroke-width="1.0" stroke-opacity="0.12"/>
<line x1="25.6" y1="319.0" x2="486.4" y2="319.0" stroke="#00e5ff" stroke-width="1.0" stroke-opacity="0.12"/>
<line x1="25.6" y1="361.0" x2="486.4" y2="361.0" stroke="#00e5ff" stroke-width="1.0" stroke-opacity="0.12"/>
<line x1="25.6" y1="403.0" x2="486.4" y2="403.0" stroke="#00e5ff" stroke-width="1.0" stroke-opacity="0.12"/>
<line x1="25.6" y1="445.0" x2="486.4" y2="445.0" stroke="#00e5ff" stroke-width="1.0" stroke-opacity="0.12"/>
<text x="262.0" y="354.2" font-family="'Press Start 2P',monospace,sans-serif" font-size="204.8" font-weight="bold" fill="rgba(0,0,0,0.75)" text-anchor="middle">VS</text>
<text x="260.0" y="352.2" font-family="'Press Start 2P',monospace,sans-serif" font-size="204.8" font-weight="bold" fill="#000000" text-anchor="middle">VS</text>
<text x="258.0" y="350.2" font-family="'Press Start 2P',monospace,sans-serif" font-size="204.8" font-weight="bold" fill="rgba(0,0,0,0.75)" text-anchor="middle">VS</text>
<text x="256.0" y="348.2" font-family="'Press Start 2P',monospace,sans-serif" font-size="204.8" font-weight="bold" fill="#ffe600" text-anchor="middle">VS</text>
<text x="260.0" y="423.8" font-family="'Press Start 2P',monospace,sans-serif" font-size="46.08" font-weight="bold" fill="rgba(0,0,0,0.75)" text-anchor="middle">TEKKEN BARRIO</text>
<text x="258.0" y="421.8" font-family="'Press Start 2P',monospace,sans-serif" font-size="46.08" font-weight="bold" fill="#000000" text-anchor="middle">TEKKEN BARRIO</text>
<text x="258.0" y="421.8" font-family="'Press Start 2P',monospace,sans-serif" font-size="46.08" font-weight="bold" fill="rgba(0,0,0,0.75)" text-anchor="middle">TEKKEN BARRIO</text>
<text x="256.0" y="419.8" font-family="'Press Start 2P',monospace,sans-serif" font-size="46.08" font-weight="bold" fill="#00e5ff" text-anchor="middle">TEKKEN BARRIO</text>
</svg>