<?xml version="1.0" encoding="UTF-8"?>
<svg xmlns="http://www.w3.org/2000/svg" viewBox="0 0 192 192" width="192" height="192">
<rect x="0.00" y="0.00" width="192.00" height="192.00" fill="#171300"/>
<line x1="-192.0" y1="0.0" x2="0.0" y2="192.0" stroke="#ffffff" stroke-width="1.0" stroke-opacity="0.08"/>
<line x1="-182.0" y1="0.0" x2="10.0" y2="192.0" stroke="#ffffff" stroke-width="1.0" stroke-opacity="0.08"/>
<line x1="-172.0" y1="0.0" x2="20.0" y2="192.0" stroke="#ffffff" stroke-width="1.0" stroke-opacity="0.08"/>
<line x1="-162.0" y1="0.0" x2="30.0" y2="192.0" stroke="#ffffff" stroke-width="1.0" stroke-opacity="0.08"/>
<line x1="-152.0" y1="0.0" x2="40.0" y2="192.0" stroke="#ffffff" stroke-width="1.0" stroke-opacity="0.08"/>
<line x1="-142.0" y1="0.0" x2="50.0" y2="192.0" stroke="#ffffff" stroke-width="1.0" stroke-opacity="0.08"/>
<line x1="-132.0" y1="0.0" x2="60.0" y2="192.0" stroke="#ffffff" stroke-width="1.0" stroke-opacity="0.08"/>
<line x1="-122.0" y1="0.0" x2="70.0" y2="192.0" stroke="#ffffff" stroke-width="1.0" stroke-opacity="0.08"/>
<line x1="-112.0" y1="0.0" x2="80.0" y2="192.0" stroke="#ffffff" stroke-width="1.0" stroke-opacity="0.08"/>
<line x1="-102.0" y1="0.0" x2="90.0" y2="192.0" stroke="#ffffff" stroke-width="1.0" stroke-opacity="0.08"/>
<line x1="-92.0" y1="0.0" x2="100.0" y2="192.0" stroke="#ffffff" stroke-width="1.0" stroke-opacity="0.08"/>
<line x1="-82.0" y1="0.0" x2="110.0" y2="192.0" stroke="#ffffff" stroke-width="1.0" stroke-opacity="0.08"/>
<line x1="-72.0" y1="0.0" x2="120.0" y2="192.0" stroke="#ffffff" stroke-width="1.0" stroke-opacity="0.08"/>
<line x1="-62.0" y1="0.0" x2="130.0" y2="192.0" stroke="#ffffff" stroke-width="1.0" stroke-opacity="0.08"/>
<line x1="-52.0" y1="0.0" x2="140.0" y2="192.0" stroke="#ffffff" stroke-width="1.0" stroke-opacity="0.08"/>
<line x1="-42.0" y1="0.0" x2="150.0" y2="192.0" stroke="#ffffff" stroke-width="1.0" stroke-opacity="0.08"/>
<line x1="-32.0" y1="0.0" x2="160.0" y2="192.0" stroke="#ffffff" stroke-width="1.0" stroke-opacity="0.08"/>
<line x1="-22.0" y1="0.0" x2="170.0" y2="192.0" stroke="#ffffff" stroke-width="1.0" stroke-opacity="0.08"/>
<line x1="-12.0" y1="0.0" x2="180.0" y2="192.0" stroke="#ffffff" stroke-width="1.0" stroke-opacity="0.08"/>
<line x1="-2.0" y1="0.0" x2="190.0" y2="192.0" stroke="#ffffff" stroke-width="1.0" stroke-opacity="0.08"/>
<line x1="8.0" y1="0.0" x2="200.0" y2="192.0" stroke="#ffffff" stroke-width="1.0" stroke-opacity="0.08"/>
<line x1="18.0" y1="0.0" x2="210.0" y2="192.0" stroke="#ffffff" stroke-width="1.0" stroke-opacity="0.08"/>
<line x1="28.0" y1="0.0" x2="220.0" y2="192.0" stroke="#ffffff" stroke-width="1.0" stroke-opacity="0.08"/>
<line x1="38.0" y1="0.0" x2="230.0" y2="192.0" stroke="#ffffff" stroke-width="1.0" stroke-opacity="0.08"/>
<line x1="48.0" y1="0.0" x2="240.0" y2="192.0" stroke="#ffffff" stroke-width="1.0" stroke-opacity="0.08"/>
<line x1="58.0" y1="0.0" x2="250.0" y2="192.0" stroke="#ffffff" stroke-width="1.0" stroke-opacity="0.08"/>
<line x1="68.0" y1="0.0" x2="260.0" y2="192.0" stroke="#ffffff" stroke-width="1.0" stroke-opacity="0.08"/>
<line x1="78.0" y1="0.0" x2="270.0" y2="192.0" stroke="#ffffff" stroke-width="1.0" stroke-opacity="0.08"/>
<line x1="88.0" y1="0.0" x2="280.0" y2="192.0" stroke="#ffffff" stroke-width="1.0" stroke-opacity="0.08"/>
<line x1="98.0" y1="0.0" x2="290.0" y2="192.0" stroke="#ffffff" stroke-width="1.0" stroke-opacity="0.08"/>
<line x1="108.0" y1="0.0" x2="300.0" y2="192.0" stroke="#ffffff" stroke-width="1.0" stroke-opacity="0.08"/>
<line x1="118.0" y1="0.0" x2="310.0" y2="192.0" stroke="#ffffff" stroke-width="1.0" stroke-opacity="0.08"/>
<line x1="128.0" y1="0.0" x2="320.0" y2="192.0" stroke="#ffffff" stroke-width="1.0" stroke-opacity="0.08"/>
<line x1="138.0" y1="0.0" x2="330.0" y2="192.0" stroke="#ffffff" stroke-width="1.0" stroke-opacity="0.08"/>
<line x1="148.0" y1="0.0" x2="340.0" y2="192.0" stroke="#ffffff" stroke-width="1.0" stroke-opacity="0.08"/>
<line x1="158.0" y1="0.0" x2="350.0" y2="192.0" stroke="#ffffff" stroke-width="1.0" stroke-opacity="0.08"/>
<line x1="168.0" y1="0.0" x2="360.0" y2="192.0" stroke="#ffffff" stroke-width="1.0" stroke-opacity="0.08"/>
<line x1="178.0" y1="0.0" x2="370.0" y2="192.0" stroke="#ffffff" stroke-width="1.0" stroke-opacity="0.08"/>
<line x1="188.0" y1="0.0" x2="380.0" y2="192.0" stroke="#ffffff" stroke-width="1.0" stroke-opacity="0.08"/>
<line x1="198.0" y1="0.0" x2="390.0" y2="192.0" stroke="#ffffff" stroke-width="1.0" stroke-opacity="0.08"/>
<line x1="208.0" y1="0.0" x2="400.0" y2="192.0" stroke="#ffffff" stroke-width="1.0" stroke-opacity="0.08"/>
<line x1="218.0" y1="0.0" x2="410.0" y2="192.0" stroke="#ffffff" stroke-width="1.0" stroke-opacity="0.08"/>
<line x1="228.0" y1="0.0" x2="420.0" y2="192.0" stroke="#ffffff" stroke-width="1.0" stroke-opacity="0.08"/>
<line x1="238.0" y1="0.0" x2="430.0" y2="192.0" stroke="#ffffff" stroke-width="1.0" stroke-opacity="0.08"/>
<line x1="248.0" y1="0.0" x2="440.0" y2="192.0" stroke="#ffffff" stroke-width="1.0" stroke-opacity="0.08"/>
<line x1="258.0" y1="0.0" x2="450.0" y2="192.0" stroke="#ffffff" stroke-width="1.0" stroke-opacity="0.08"/>
<line x1="268.0" y1="0.0" x2="460.0" y2="192.0" stroke="#ffffff" stroke-width="1.0" stroke-opacity="0.08"/>
<line x1="278.0" y1="0.0" x2="470.0" y2="192.0" stroke="#ffffff" stroke-width="1.0" stroke-opacity="0.08"/>
<line x1="288.0" y1="0.0" x2="480.0" y2="192.0" stroke="#ffffff" stroke-width="1.0" stroke-opacity="0.08"/>
<line x1="298.0" y1="0.0" x2="490.0" y2="192.0" stroke="#ffffff" stroke-width="1.0" stroke-opacity="0.08"/>
<line x1="308.0" y1="0.0" x2="500.0" y2="192.0" stroke="#ffffff" stroke-width="1.0" stroke-opacity="0.08"/>
<line x1="318.0" y1="0.0" x2="510.0" y2="192.0" stroke="#ffffff" stroke-width="1.0" stroke-opacity="0.08"/>
<line x1="328.0" y1="0.0" x2="520.0" y2="192.0" stroke="#ffffff" stroke-width="1.0" stroke-opacity="0.08"/>
<line x1="338.0" y1="0.0" x2="530.0" y2="192.0" stroke="#ffffff" stroke-width="1.0" stroke-opacity="0.08"/>
<line x1="348.0" y1="0.0" x2="540.0" y2="192.0" stroke="#ffffff" stroke-width="1.0" stroke-opacity="0.08"/>
<line x1="358.0" y1="0.0" x2="550.0" y2="192.0" stroke="#ffffff" stroke-width="1.0" stroke-opacity="0.08"/>
<line x1="368.0" y1="0.0" x2="560.0" y2="192.0" stroke="#ffffff" stroke-width="1.0" stroke-opacity="0.08"/>
<line x1="378.0" y1="0.0" x2="570.0" y2="192.0" stroke="#ffffff" stroke-width="1.0" stroke-opacity="0.08"/>
<rect x="7.50" y="7.50" width="177.00" height="177.00" fill="#bfa53f" rx="4.0" fill-opacity="0.00"/>
<rect x="7.5" y="7.5" width="177.0" height="177.0" fill="none" stroke="#bfa53f" stroke-width="2.2" rx="4"/>
<ellipse cx="84.00" cy="166.50" rx="27.00" ry="7.50" fill="#302612"/>
<ellipse cx="108.00" cy="166.50" rx="27.00" ry="7.50" fill="#302612"/>
<ellipse cx="84.00" cy="170.25" rx="25.50" ry="3.00" fill="#1a1409"/>
<ellipse cx="108.00" cy="170.25" rx="25.50" ry="3.00" fill="#1a1409"/>
<polygon points="68.25,124.50 99.75,124.50 98.25,161.25 69.75,161.25" fill="#4e3e12"/>
<polygon points="92.25,124.50 123.75,124.50 122.25,161.25 93.75,161.25" fill="#4e3e12"/>
<polygon points="71.70,102.00 92.25,102.00 99.75,124.50 68.25,124.50" fill="#4e3e12"/>
<polygon points="99.75,102.00 120.30,102.00 123.75,124.50 92.25,124.50" fill="#4e3e12"/>
<polygon points="51.00,64.50 141.00,64.50 129.75,102.00 62.25,102.00" fill="#987a26"/>
<polygon points="82.50,64.50 109.50,64.50 102.00,73.50 90.00,73.50" fill="#6a551a"/>
<polygon points="54.00,67.50 38.25,69.00 36.75,115.50 54.75,115.50" fill="#ffd7b2"/>
<polygon points="54.75,115.50 36.75,115.50 35.25,142.50 56.25,142.50" fill="#ffd7b2"/>
<polygon points="138.00,67.50 153.75,69.00 155.25,115.50 137.25,115.50" fill="#ffd7b2"/>
<polygon points="137.25,115.50 155.25,115.50 156.75,142.50 135.75,142.50" fill="#ffd7b2"/>
<ellipse cx="37.88" cy="147.38" rx="9.75" ry="12.68" fill="#ffd7b2"/>
<ellipse cx="154.12" cy="147.38" rx="9.75" ry="12.68" fill="#ffd7b2"/>
<rect x="86.25" y="47.25" width="19.50" height="17.25" fill="#ffd7b2"/>
<ellipse cx="96.00" cy="33.00" rx="25.50" ry="25.50" fill="#ffd7b2"/>
<polygon points="70.50,39.75 121.50,39.75 118.50,58.50 73.50,58.50" fill="#ffd7b2"/>
<ellipse cx="96.00" cy="17.70" rx="12.24" ry="10.71" fill="#e1dcd2"/>
<polygon points="84.78,15.66 72.28,20.76 74.07,30.96 86.31,28.41" fill="#e1dcd2"/>
<polygon points="107.22,15.66 119.72,20.76 117.93,30.96 105.69,28.41" fill="#e1dcd2"/>
<ellipse cx="86.31" cy="34.53" rx="5.61" ry="4.33" fill="#ffffff"/>
<ellipse cx="105.69" cy="34.53" rx="5.61" ry="4.33" fill="#ffffff"/>
<ellipse cx="86.31" cy="34.53" rx="3.25" ry="3.38" fill="#140c08"/>
<circle cx="85.01" cy="33.18" r="1.14" fill="#ffffff"/>
<ellipse cx="105.69" cy="34.53" rx="3.25" ry="3.38" fill="#140c08"/>
<circle cx="104.39" cy="33.18" r="1.14" fill="#ffffff"/>
<rect x="79.68" y="26.37" width="13.26" height="2.04" fill="#665647"/>
<rect x="99.06" y="26.37" width="13.26" height="2.04" fill="#665647"/>
<ellipse cx="96.00" cy="42.69" rx="2.04" ry="2.45" fill="#b79a80"/>
<rect x="87.33" y="47.79" width="17.34" height="2.55" fill="#9b3030" rx="1.3"/>
<line x1="92.43" y1="41.16" x2="94.73" y2="43.71" stroke="#ad9279" stroke-width="1.0"/>
<line x1="99.57" y1="41.16" x2="101.86" y2="43.71" stroke="#ad9279" stroke-width="1.0"/>
<line x1="37.88" y1="152.25" x2="33.98" y2="171.75" stroke="#8a6230" stroke-width="3.0" stroke-linecap="round"/>
<path d="M 37.88,152.25 Q 32.02,140.55 37.88,136.65" fill="none" stroke="#8a6230" stroke-width="3.0" stroke-linecap="round"/>
</svg>