<?xml version="1.0" encoding="UTF-8"?>
<svg xmlns="http://www.w3.org/2000/svg" viewBox="0 0 192 192" width="192" height="192">
<rect x="0.00" y="0.00" width="192.00" height="192.00" fill="#230023"/>
<line x1="-192.0" y1="0.0" x2="0.0" y2="192.0" stroke="#ffffff" stroke-width="1.0" stroke-opacity="0.08"/>
<line x1="-182.0" y1="0.0" x2="10.0" y2="192.0" stroke="#ffffff" stroke-width="1.0" stroke-opacity="0.08"/>
<line x1="-172.0" y1="0.0" x2="20.0" y2="192.0" stroke="#ffffff" stroke-width="1.0" stroke-opacity="0.08"/>
<line x1="-162.0" y1="0.0" x2="30.0" y2="192.0" stroke="#ffffff" stroke-width="1.0" stroke-opacity="0.08"/>
<line x1="-152.0" y1="0.0" x2="40.0" y2="192.0" stroke="#ffffff" stroke-width="1.0" stroke-opacity="0.08"/>
<line x1="-142.0" y1="0.0" x2="50.0" y2="192.0" stroke="#ffffff" stroke-width="1.0" stroke-opacity="0.08"/>
<line x1="-132.0" y1="0.0" x2="60.0" y2="192.0" stroke="#ffffff" stroke-width="1.0" stroke-opacity="0.08"/>
<line x1="-122.0" y1="0.0" x2="70.0" y2="192.0" stroke="#ffffff" stroke-width="1.0" stroke-opacity="0.08"/>
<line x1="-112.0" y1="0.0" x2="80.0" y2="192.0" stroke="#ffffff" stroke-width="1.0" stroke-opacity="0.08"/>
<line x1="-102.0" y1="0.0" x2="90.0" y2="192.0" stroke="#ffffff" stroke-width="1.0" stroke-opacity="0.08"/>
<line x1="-92.0" y1="0.0" x2="100.0" y2="192.0" stroke="#ffffff" stroke-width="1.0" stroke-opacity="0.08"/>
<line x1="-82.0" y1="0.0" x2="110.0" y2="192.0" stroke="#ffffff" stroke-width="1.0" stroke-opacity="0.08"/>
<line x1="-72.0" y1="0.0" x2="120.0" y2="192.0" stroke="#ffffff" stroke-width="1.0" stroke-opacity="0.08"/>
<line x1="-62.0" y1="0.0" x2="130.0" y2="192.0" stroke="#ffffff" stroke-width="1.0" stroke-opacity="0.08"/>
<line x1="-52.0" y1="0.0" x2="140.0" y2="192.0" stroke="#ffffff" stroke-width="1.0" stroke-opacity="0.08"/>
<line x1="-42.0" y1="0.0" x2="150.0" y2="192.0" stroke="#ffffff" stroke-width="1.0" stroke-opacity="0.08"/>
<line x1="-32.0" y1="0.0" x2="160.0" y2="192.0" stroke="#ffffff" stroke-width="1.0" stroke-opacity="0.08"/>
<line x1="-22.0" y1="0.0" x2="170.0" y2="192.0" stroke="#ffffff" stroke-width="1.0" stroke-opacity="0.08"/>
<line x1="-12.0" y1="0.0" x2="180.0" y2="192.0" stroke="#ffffff" stroke-width="1.0" stroke-opacity="0.08"/>
<line x1="-2.0" y1="0.0" x2="190.0" y2="192.0" stroke="#ffffff" stroke-width="1.0" stroke-opacity="0.08"/>
<line x1="8.0" y1="0.0" x2="200.0" y2="192.0" stroke="#ffffff" stroke-width="1.0" stroke-opacity="0.08"/>
<line x1="18.0" y1="0.0" x2="210.0" y2="192.0" stroke="#ffffff" stroke-width="1.0" stroke-opacity="0.08"/>
<line x1="28.0" y1="0.0" x2="220.0" y2="192.0" stroke="#ffffff" stroke-width="1.0" stroke-opacity="0.08"/>
<line x1="38.0" y1="0.0" x2="230.0" y2="192.0" stroke="#ffffff" stroke-width="1.0" stroke-opacity="0.08"/>
<line x1="48.0" y1="0.0" x2="240.0" y2="192.0" stroke="#ffffff" stroke-width="1.0" stroke-opacity="0.08"/>
<line x1="58.0" y1="0.0" x2="250.0" y2="192.0" stroke="#ffffff" stroke-width="1.0" stroke-opacity="0.08"/>
<line x1="68.0" y1="0.0" x2="260.0" y2="192.0" stroke="#ffffff" stroke-width="1.0" stroke-opacity="0.08"/>
<line x1="78.0" y1="0.0" x2="270.0" y2="192.0" stroke="#ffffff" stroke-width="1.0" stroke-opacity="0.08"/>
<line x1="88.0" y1="0.0" x2="280.0" y2="192.0" stroke="#ffffff" stroke-width="1.0" stroke-opacity="0.08"/>
<line x1="98.0" y1="0.0" x2="290.0" y2="192.0" stroke="#ffffff" stroke-width="1.0" stroke-opacity="0.08"/>
<line x1="108.0" y1="0.0" x2="300.0" y2="192.0" stroke="#ffffff" stroke-width="1.0" stroke-opacity="0.08"/>
<line x1="118.0" y1="0.0" x2="310.0" y2="192.0" stroke="#ffffff" stroke-width="1.0" stroke-opacity="0.08"/>
<line x1="128.0" y1="0.0" x2="320.0" y2="192.0" stroke="#ffffff" stroke-width="1.0" stroke-opacity="0.08"/>
<line x1="138.0" y1="0.0" x2="330.0" y2="192.0" stroke="#ffffff" stroke-width="1.0" stroke-opacity="0.08"/>
<line x1="148.0" y1="0.0" x2="340.0" y2="192.0" stroke="#ffffff" stroke-width="1.0" stroke-opacity="0.08"/>
<line x1="158.0" y1="0.0" x2="350.0" y2="192.0" stroke="#ffffff" stroke-width="1.0" stroke-opacity="0.08"/>
<line x1="168.0" y1="0.0" x2="360.0" y2="192.0" stroke="#ffffff" stroke-width="1.0" stroke-opacity="0.08"/>
<line x1="178.0" y1="0.0" x2="370.0" y2="192.0" stroke="#ffffff" stroke-width="1.0" stroke-opacity="0.08"/>
<line x1="188.0" y1="0.0" x2="380.0" y2="192.0" stroke="#ffffff" stroke-width="1.0" stroke-opacity="0.08"/>
<line x1="198.0" y1="0.0" x2="390.0" y2="192.0" stroke="#ffffff" stroke-width="1.0" stroke-opacity="0.08"/>
<line x1="208.0" y1="0.0" x2="400.0" y2="192.0" stroke="#ffffff" stroke-width="1.0" stroke-opacity="0.08"/>
<line x1="218.0" y1="0.0" x2="410.0" y2="192.0" stroke="#ffffff" stroke-width="1.0" stroke-opacity="0.08"/>
<line x1="228.0" y1="0.0" x2="420.0" y2="192.0" stroke="#ffffff" stroke-width="1.0" stroke-opacity="0.08"/>
<line x1="238.0" y1="0.0" x2="430.0" y2="192.0" stroke="#ffffff" stroke-width="1.0" stroke-opacity="0.08"/>
<line x1="248.0" y1="0.0" x2="440.0" y2="192.0" stroke="#ffffff" stroke-width="1.0" stroke-opacity="0.08"/>
<line x1="258.0" y1="0.0" x2="450.0" y2="192.0" stroke="#ffffff" stroke-width="1.0" stroke-opacity="0.08"/>
<line x1="268.0" y1="0.0" x2="460.0" y2="192.0" stroke="#ffffff" stroke-width="1.0" stroke-opacity="0.08"/>
<line x1="278.0" y1="0.0" x2="470.0" y2="192.0" stroke="#ffffff" stroke-width="1.0" stroke-opacity="0.08"/>
<line x1="288.0" y1="0.0" x2="480.0" y2="192.0" stroke="#ffffff" stroke-width="1.0" stroke-opacity="0.08"/>
<line x1="298.0" y1="0.0" x2="490.0" y2="192.0" stroke="#ffffff" stroke-width="1.0" stroke-opacity="0.08"/>
<line x1="308.0" y1="0.0" x2="500.0" y2="192.0" stroke="#ffffff" stroke-width="1.0" stroke-opacity="0.08"/>
<line x1="318.0" y1="0.0" x2="510.0" y2="192.0" stroke="#ffffff" stroke-width="1.0" stroke-opacity="0.08"/>
<line x1="328.0" y1="0.0" x2="520.0" y2="192.0" stroke="#ffffff" stroke-width="1.0" stroke-opacity="0.08"/>
<line x1="338.0" y1="0.0" x2="530.0" y2="192.0" stroke="#ffffff" stroke-width="1.0" stroke-opacity="0.08"/>
<line x1="348.0" y1="0.0" x2="540.0" y2="192.0" stroke="#ffffff" stroke-width="1.0" stroke-opacity="0.08"/>
<line x1="358.0" y1="0.0" x2="550.0" y2="192.0" stroke="#ffffff" stroke-width="1.0" stroke-opacity="0.08"/>
<line x1="368.0" y1="0.0" x2="560.0" y2="192.0" stroke="#ffffff" stroke-width="1.0" stroke-opacity="0.08"/>
<line x1="378.0" y1="0.0" x2="570.0" y2="192.0" stroke="#ffffff" stroke-width="1.0" stroke-opacity="0.08"/>
<rect x="7.50" y="7.50" width="177.00" height="177.00" fill="#ff3fff" rx="4.0" fill-opacity="0.00"/>
<rect x="7.5" y="7.5" width="177.0" height="177.0" fill="none" stroke="#ff3fff" stroke-width="2.2" rx="4"/>
<ellipse cx="84.00" cy="166.50" rx="27.00" ry="7.50" fill="#4e0062"/>
<ellipse cx="108.00" cy="166.50" rx="27.00" ry="7.50" fill="#4e0062"/>
<ellipse cx="84.00" cy="170.25" rx="25.50" ry="3.00" fill="#2a0035"/>
<ellipse cx="108.00" cy="170.25" rx="25.50" ry="3.00" fill="#2a0035"/>
<polygon points="72.00,124.50 96.00,124.50 94.50,161.25 73.50,161.25" fill="#76009e"/>
<polygon points="96.00,124.50 120.00,124.50 118.50,161.25 97.50,161.25" fill="#76009e"/>
<polygon points="79.26,102.00 92.25,102.00 96.00,124.50 72.00,124.50" fill="#76009e"/>
<polygon points="99.75,102.00 112.74,102.00 120.00,124.50 96.00,124.50" fill="#76009e"/>
<polygon points="61.50,64.50 130.50,64.50 119.25,102.00 72.75,102.00" fill="#da00da"/>
<polygon points="82.50,64.50 109.50,64.50 102.00,73.50 90.00,73.50" fill="#980098"/>
<polygon points="64.50,67.50 51.75,69.00 50.25,115.50 65.25,115.50" fill="#d29c6e"/>
<polygon points="65.25,115.50 50.25,115.50 48.75,142.50 66.75,142.50" fill="#d29c6e"/>
<polygon points="127.50,67.50 140.25,69.00 141.75,115.50 126.75,115.50" fill="#d29c6e"/>
<polygon points="126.75,115.50 141.75,115.50 143.25,142.50 125.25,142.50" fill="#d29c6e"/>
<ellipse cx="51.38" cy="147.38" rx="9.75" ry="12.68" fill="#d29c6e"/>
<ellipse cx="140.62" cy="147.38" rx="9.75" ry="12.68" fill="#d29c6e"/>
<rect x="86.25" y="47.25" width="19.50" height="17.25" fill="#d29c6e"/>
<ellipse cx="96.00" cy="33.00" rx="25.50" ry="25.50" fill="#d29c6e"/>
<ellipse cx="96.00" cy="21.78" rx="22.44" ry="14.28" fill="#af2a12"/>
<polygon points="78.66,10.56 82.49,1.38 86.31,10.56" fill="#af2a12"/>
<polygon points="86.31,4.95 90.14,-4.23 93.96,4.95" fill="#af2a12"/>
<polygon points="96.51,3.68 100.34,-5.50 104.16,3.68" fill="#af2a12"/>
<polygon points="104.92,7.50 108.75,-1.68 112.57,7.50" fill="#af2a12"/>
<polygon points="111.30,15.15 115.12,5.97 118.95,15.15" fill="#af2a12"/>
<ellipse cx="86.31" cy="34.53" rx="5.61" ry="4.33" fill="#ffffff"/>
<ellipse cx="105.69" cy="34.53" rx="5.61" ry="4.33" fill="#ffffff"/>
<ellipse cx="86.31" cy="34.53" rx="3.25" ry="3.38" fill="#140c08"/>
<circle cx="85.01" cy="33.18" r="1.14" fill="#ffffff"/>
<ellipse cx="105.69" cy="34.53" rx="3.25" ry="3.38" fill="#140c08"/>
<circle cx="104.39" cy="33.18" r="1.14" fill="#ffffff"/>
<rect x="79.68" y="26.37" width="13.26" height="2.04" fill="#543e2c"/>
<rect x="99.06" y="26.37" width="13.26" height="2.04" fill="#543e2c"/>
<ellipse cx="96.00" cy="42.69" rx="2.04" ry="2.45" fill="#97704f"/>
<rect x="87.33" y="47.79" width="17.34" height="2.55" fill="#9b3030" rx="1.3"/>
<rect x="133.80" y="147.38" width="13.65" height="19.50" fill="#c3c6ca" rx="5.5"/>
<ellipse cx="140.62" cy="147.38" rx="6.82" ry="3.41" fill="#989a9d"/>
<rect x="138.71" y="139.97" width="3.82" height="3.90" fill="#5a5c5f" rx="2.0"/>
<circle cx="157.12" cy="143.97" r="3.41" fill="#ff00ff" fill-opacity="0.75"/>
<circle cx="153.03" cy="148.24" r="3.41" fill="#ff00ff" fill-opacity="0.75"/>
<circle cx="146.63" cy="150.96" r="3.41" fill="#ff00ff" fill-opacity="0.75"/>
<circle cx="139.10" cy="151.62" r="3.41" fill="#ff00ff" fill-opacity="0.75"/>
<circle cx="131.85" cy="150.10" r="3.41" fill="#ff00ff" fill-opacity="0.75"/>
<circle cx="126.25" cy="146.68" r="3.41" fill="#ff00ff" fill-opacity="0.75"/>
</svg>