<?xml version="1.0" encoding="UTF-8"?>
<svg xmlns="http://www.w3.org/2000/svg" viewBox="0 0 512 512" width="512" height="512">
<rect x="0.00" y="0.00" width="512.00" height="512.00" fill="#131313"/>
<line x1="-512.0" y1="0.0" x2="0.0" y2="512.0" stroke="#ffffff" stroke-width="1.0" stroke-opacity="0.08"/>
<line x1="-494.0" y1="0.0" x2="18.0" y2="512.0" stroke="#ffffff" stroke-width="1.0" stroke-opacity="0.08"/>
<line x1="-476.0" y1="0.0" x2="36.0" y2="512.0" stroke="#ffffff" stroke-width="1.0" stroke-opacity="0.08"/>
<line x1="-458.0" y1="0.0" x2="54.0" y2="512.0" stroke="#ffffff" stroke-width="1.0" stroke-opacity="0.08"/>
<line x1="-440.0" y1="0.0" x2="72.0" y2="512.0" stroke="#ffffff" stroke-width="1.0" stroke-opacity="0.08"/>
<line x1="-422.0" y1="0.0" x2="90.0" y2="512.0" stroke="#ffffff" stroke-width="1.0" stroke-opacity="0.08"/>
<line x1="-404.0" y1="0.0" x2="108.0" y2="512.0" stroke="#ffffff" stroke-width="1.0" stroke-opacity="0.08"/>
<line x1="-386.0" y1="0.0" x2="126.0" y2="512.0" stroke="#ffffff" stroke-width="1.0" stroke-opacity="0.08"/>
<line x1="-368.0" y1="0.0" x2="144.0" y2="512.0" stroke="#ffffff" stroke-width="1.0" stroke-opacity="0.08"/>
<line x1="-350.0" y1="0.0" x2="162.0" y2="512.0" stroke="#ffffff" stroke-width="1.0" stroke-opacity="0.08"/>
<line x1="-332.0" y1="0.0" x2="180.0" y2="512.0" stroke="#ffffff" stroke-width="1.0" stroke-opacity="0.08"/>
<line x1="-314.0" y1="0.0" x2="198.0" y2="512.0" stroke="#ffffff" stroke-width="1.0" stroke-opacity="0.08"/>
<line x1="-296.0" y1="0.0" x2="216.0" y2="512.0" stroke="#ffffff" stroke-width="1.0" stroke-opacity="0.08"/>
<line x1="-278.0" y1="0.0" x2="234.0" y2="512.0" stroke="#ffffff" stroke-width="1.0" stroke-opacity="0.08"/>
<line x1="-260.0" y1="0.0" x2="252.0" y2="512.0" stroke="#ffffff" stroke-width="1.0" stroke-opacity="0.08"/>
<line x1="-242.0" y1="0.0" x2="270.0" y2="512.0" stroke="#ffffff" stroke-width="1.0" stroke-opacity="0.08"/>
<line x1="-224.0" y1="0.0" x2="288.0" y2="512.0" stroke="#ffffff" stroke-width="1.0" stroke-opacity="0.08"/>
<line x1="-206.0" y1="0.0" x2="306.0" y2="512.0" stroke="#ffffff" stroke-width="1.0" stroke-opacity="0.08"/>
<line x1="-188.0" y1="0.0" x2="324.0" y2="512.0" stroke="#ffffff" stroke-width="1.0" stroke-opacity="0.08"/>
<line x1="-170.0" y1="0.0" x2="342.0" y2="512.0" stroke="#ffffff" stroke-width="1.0" stroke-opacity="0.08"/>
<line x1="-152.0" y1="0.0" x2="360.0" y2="512.0" stroke="#ffffff" stroke-width="1.0" stroke-opacity="0.08"/>
<line x1="-134.0" y1="0.0" x2="378.0" y2="512.0" stroke="#ffffff" stroke-width="1.0" stroke-opacity="0.08"/>
<line x1="-116.0" y1="0.0" x2="396.0" y2="512.0" stroke="#ffffff" stroke-width="1.0" stroke-opacity="0.08"/>
<line x1="-98.0" y1="0.0" x2="414.0" y2="512.0" stroke="#ffffff" stroke-width="1.0" stroke-opacity="0.08"/>
<line x1="-80.0" y1="0.0" x2="432.0" y2="512.0" stroke="#ffffff" stroke-width="1.0" stroke-opacity="0.08"/>
<line x1="-62.0" y1="0.0" x2="450.0" y2="512.0" stroke="#ffffff" stroke-width="1.0" stroke-opacity="0.08"/>
<line x1="-44.0" y1="0.0" x2="468.0" y2="512.0" stroke="#ffffff" stroke-width="1.0" stroke-opacity="0.08"/>
<line x1="-26.0" y1="0.0" x2="486.0" y2="512.0" stroke="#ffffff" stroke-width="1.0" stroke-opacity="0.08"/>
<line x1="-8.0" y1="0.0" x2="504.0" y2="512.0" stroke="#ffffff" stroke-width="1.0" stroke-opacity="0.08"/>
<line x1="10.0" y1="0.0" x2="522.0" y2="512.0" stroke="#ffffff" stroke-width="1.0" stroke-opacity="0.08"/>
<line x1="28.0" y1="0.0" x2="540.0" y2="512.0" stroke="#ffffff" stroke-width="1.0" stroke-opacity="0.08"/>
<line x1="46.0" y1="0.0" x2="558.0" y2="512.0" stroke="#ffffff" stroke-width="1.0" stroke-opacity="0.08"/>
<line x1="64.0" y1="0.0" x2="576.0" y2="512.0" stroke="#ffffff" stroke-width="1.0" stroke-opacity="0.08"/>
<line x1="82.0" y1="0.0" x2="594.0" y2="512.0" stroke="#ffffff" stroke-width="1.0" stroke-opacity="0.08"/>
<line x1="100.0" y1="0.0" x2="612.0" y2="512.0" stroke="#ffffff" stroke-width="1.0" stroke-opacity="0.08"/>
<line x1="118.0" y1="0.0" x2="630.0" y2="512.0" stroke="#ffffff" stroke-width="1.0" stroke-opacity="0.08"/>
<line x1="136.0" y1="0.0" x2="648.0" y2="512.0" stroke="#ffffff" stroke-width="1.0" stroke-opacity="0.08"/>
<line x1="154.0" y1="0.0" x2="666.0" y2="512.0" stroke="#ffffff" stroke-width="1.0" stroke-opacity="0.08"/>
<line x1="172.0" y1="0.0" x2="684.0" y2="512.0" stroke="#ffffff" stroke-width="1.0" stroke-opacity="0.08"/>
<line x1="190.0" y1="0.0" x2="702.0" y2="512.0" stroke="#ffffff" stroke-width="1.0" stroke-opacity="0.08"/>
<line x1="208.0" y1="0.0" x2="720.0" y2="512.0" stroke="#ffffff" stroke-width="1.0" stroke-opacity="0.08"/>
<line x1="226.0" y1="0.0" x2="738.0" y2="512.0" stroke="#ffffff" stroke-width="1.0" stroke-opacity="0.08"/>
<line x1="244.0" y1="0.0" x2="756.0" y2="512.0" stroke="#ffffff" stroke-width="1.0" stroke-opacity="0.08"/>
<line x1="262.0" y1="0.0" x2="774.0" y2="512.0" stroke="#ffffff" stroke-width="1.0" stroke-opacity="0.08"/>
<line x1="280.0" y1="0.0" x2="792.0" y2="512.0" stroke="#ffffff" stroke-width="1.0" stroke-opacity="0.08"/>
<line x1="298.0" y1="0.0" x2="810.0" y2="512.0" stroke="#ffffff" stroke-width="1.0" stroke-opacity="0.08"/>
<line x1="316.0" y1="0.0" x2="828.0" y2="512.0" stroke="#ffffff" stroke-width="1.0" stroke-opacity="0.08"/>
<line x1="334.0" y1="0.0" x2="846.0" y2="512.0" stroke="#ffffff" stroke-width="1.0" stroke-opacity="0.08"/>
<line x1="352.0" y1="0.0" x2="864.0" y2="512.0" stroke="#ffffff" stroke-width="1.0" stroke-opacity="0.08"/>
<line x1="370.0" y1="0.0" x2="882.0" y2="512.0" stroke="#ffffff" stroke-width="1.0" stroke-opacity="0.08"/>
<line x1="388.0" y1="0.0" x2="900.0" y2="512.0" stroke="#ffffff" stroke-width="1.0" stroke-opacity="0.08"/>
<line x1="406.0" y1="0.0" x2="918.0" y2="512.0" stroke="#ffffff" stroke-width="1.0" stroke-opacity="0.08"/>
<line x1="424.0" y1="0.0" x2="936.0" y2="512.0" stroke="#ffffff" stroke-width="1.0" stroke-opacity="0.08"/>
<line x1="442.0" y1="0.0" x2="954.0" y2="512.0" stroke="#ffffff" stroke-width="1.0" stroke-opacity="0.08"/>
<line x1="460.0" y1="0.0" x2="972.0" y2="512.0" stroke="#ffffff" stroke-width="1.0" stroke-opacity="0.08"/>
<line x1="478.0" y1="0.0" x2="990.0" y2="512.0" stroke="#ffffff" stroke-width="1.0" stroke-opacity="0.08"/>
<line x1="496.0" y1="0.0" x2="1008.0" y2="512.0" stroke="#ffffff" stroke-width="1.0" stroke-opacity="0.08"/>
<line x1="514.0" y1="0.0" x2="1026.0" y2="512.0" stroke="#ffffff" stroke-width="1.0" stroke-opacity="0.08"/>
<line x1="532.0" y1="0.0" x2="1044.0" y2="512.0" stroke="#ffffff" stroke-width="1.0" stroke-opacity="0.08"/>
<line x1="550.0" y1="0.0" x2="1062.0" y2="512.0" stroke="#ffffff" stroke-width="1.0" stroke-opacity="0.08"/>
<line x1="568.0" y1="0.0" x2="1080.0" y2="512.0" stroke="#ffffff" stroke-width="1.0" stroke-opacity="0.08"/>
<line x1="586.0" y1="0.0" x2="1098.0" y2="512.0" stroke="#ffffff" stroke-width="1.0" stroke-opacity="0.08"/>
<line x1="604.0" y1="0.0" x2="1116.0" y2="512.0" stroke="#ffffff" stroke-width="1.0" stroke-opacity="0.08"/>
<line x1="622.0" y1="0.0" x2="1134.0" y2="512.0" stroke="#ffffff" stroke-width="1.0" stroke-opacity="0.08"/>
<line x1="640.0" y1="0.0" x2="1152.0" y2="512.0" stroke="#ffffff" stroke-width="1.0" stroke-opacity="0.08"/>
<line x1="658.0" y1="0.0" x2="1170.0" y2="512.0" stroke="#ffffff" stroke-width="1.0" stroke-opacity="0.08"/>
<line x1="676.0" y1="0.0" x2="1188.0" y2="512.0" stroke="#ffffff" stroke-width="1.0" stroke-opacity="0.08"/>
<line x1="694.0" y1="0.0" x2="1206.0" y2="512.0" stroke="#ffffff" stroke-width="1.0" stroke-opacity="0.08"/>
<line x1="712.0" y1="0.0" x2="1224.0" y2="512.0" stroke="#ffffff" stroke-width="1.0" stroke-opacity="0.08"/>
<line x1="730.0" y1="0.0" x2="1242.0" y2="512.0" stroke="#ffffff" stroke-width="1.0" stroke-opacity="0.08"/>
<line x1="748.0" y1="0.0" x2="1260.0" y2="512.0" stroke="#ffffff" stroke-width="1.0" stroke-opacity="0.08"/>
<line x1="766.0" y1="0.0" x2="1278.0" y2="512.0" stroke="#ffffff" stroke-width="1.0" stroke-opacity="0.08"/>
<line x1="784.0" y1="0.0" x2="1296.0" y2="512.0" stroke="#ffffff" stroke-width="1.0" stroke-opacity="0.08"/>
<line x1="802.0" y1="0.0" x2="1314.0" y2="512.0" stroke="#ffffff" stroke-width="1.0" stroke-opacity="0.08"/>
<line x1="820.0" y1="0.0" x2="1332.0" y2="512.0" stroke="#ffffff" stroke-width="1.0" stroke-opacity="0.08"/>
<line x1="838.0" y1="0.0" x2="1350.0" y2="512.0" stroke="#ffffff" stroke-width="1.0" stroke-opacity="0.08"/>
<line x1="856.0" y1="0.0" x2="1368.0" y2="512.0" stroke="#ffffff" stroke-width="1.0" stroke-opacity="0.08"/>
<line x1="874.0" y1="0.0" x2="1386.0" y2="512.0" stroke="#ffffff" stroke-width="1.0" stroke-opacity="0.08"/>
<line x1="892.0" y1="0.0" x2="1404.0" y2="512.0" stroke="#ffffff" stroke-width="1.0" stroke-opacity="0.08"/>
<line x1="910.0" y1="0.0" x2="1422.0" y2="512.0" stroke="#ffffff" stroke-width="1.0" stroke-opacity="0.08"/>
<line x1="928.0" y1="0.0" x2="1440.0" y2="512.0" stroke="#ffffff" stroke-width="1.0" stroke-opacity="0.08"/>
<line x1="946.0" y1="0.0" x2="1458.0" y2="512.0" stroke="#ffffff" stroke-width="1.0" stroke-opacity="0.08"/>
<line x1="964.0" y1="0.0" x2="1476.0" y2="512.0" stroke="#ffffff" stroke-width="1.0" stroke-opacity="0.08"/>
<line x1="982.0" y1="0.0" x2="1494.0" y2="512.0" stroke="#ffffff" stroke-width="1.0" stroke-opacity="0.08"/>
<line x1="1000.0" y1="0.0" x2="1512.0" y2="512.0" stroke="#ffffff" stroke-width="1.0" stroke-opacity="0.08"/>
<line x1="1018.0" y1="0.0" x2="1530.0" y2="512.0" stroke="#ffffff" stroke-width="1.0" stroke-opacity="0.08"/>
<rect x="20.00" y="20.00" width="472.00" height="472.00" fill="#a5a5a5" rx="4.0" fill-opacity="0.00"/>
<rect x="20.0" y="20.0" width="472.0" height="472.0" fill="none" stroke="#a5a5a5" stroke-width="6.0" rx="4"/>
<ellipse cx="224.00" cy="444.00" rx="72.00" ry="20.00" fill="#30261c"/>
<ellipse cx="288.00" cy="444.00" rx="72.00" ry="20.00" fill="#30261c"/>
<ellipse cx="224.00" cy="454.00" rx="68.00" ry="8.00" fill="#1a140f"/>
<ellipse cx="288.00" cy="454.00" rx="68.00" ry="8.00" fill="#1a140f"/>
<polygon points="182.00,332.00 266.00,332.00 262.00,430.00 186.00,430.00" fill="#584e3e"/>
<polygon points="246.00,332.00 330.00,332.00 326.00,430.00 250.00,430.00" fill="#584e3e"/>
<polygon points="191.20,272.00 246.00,272.00 266.00,332.00 182.00,332.00" fill="#584e3e"/>
<polygon points="266.00,272.00 320.80,272.00 330.00,332.00 246.00,332.00" fill="#584e3e"/>
<polygon points="136.00,172.00 376.00,172.00 346.00,272.00 166.00,272.00" fill="#6c6c70"/>
<polygon points="220.00,172.00 292.00,172.00 272.00,196.00 240.00,196.00" fill="#4b4b4e"/>
<ellipse cx="251.00" cy="230.00" rx="28.00" ry="22.00" fill="#261c12" fill-opacity="0.85"/>
<ellipse cx="278.00" cy="210.00" rx="18.00" ry="14.00" fill="#261c12" fill-opacity="0.85"/>
<polygon points="144.00,180.00 102.00,184.00 98.00,308.00 146.00,308.00" fill="#eec096"/>
<polygon points="146.00,308.00 98.00,308.00 94.00,380.00 150.00,380.00" fill="#eec096"/>
<polygon points="368.00,180.00 410.00,184.00 414.00,308.00 366.00,308.00" fill="#eec096"/>
<polygon points="366.00,308.00 414.00,308.00 418.00,380.00 362.00,380.00" fill="#eec096"/>
<ellipse cx="101.00" cy="393.00" rx="26.00" ry="33.80" fill="#eec096"/>
<ellipse cx="411.00" cy="393.00" rx="26.00" ry="33.80" fill="#eec096"/>
<rect x="230.00" y="126.00" width="52.00" height="46.00" fill="#eec096"/>
<ellipse cx="256.00" cy="88.00" rx="68.00" ry="68.00" fill="#eec096"/>
<polygon points="188.00,106.00 324.00,106.00 316.00,156.00 196.00,156.00" fill="#eec096"/>
<ellipse cx="256.00" cy="55.36" rx="58.48" ry="35.36" fill="#3a200e"/>
<polygon points="214.52,28.16 223.36,-1.76 231.52,28.16" fill="#3a200e"/>
<polygon points="234.92,28.16 243.76,-1.76 251.92,28.16" fill="#3a200e"/>
<polygon points="253.96,28.16 262.80,-1.76 270.96,28.16" fill="#3a200e"/>
<polygon points="274.36,28.16 283.20,-1.76 291.36,28.16" fill="#3a200e"/>
<polygon points="292.04,28.16 300.88,-1.76 309.04,28.16" fill="#3a200e"/>
<ellipse cx="230.16" cy="92.08" rx="14.96" ry="11.56" fill="#ffffff"/>
<ellipse cx="281.84" cy="92.08" rx="14.96" ry="11.56" fill="#ffffff"/>
<ellipse cx="230.16" cy="92.08" rx="8.68" ry="9.02" fill="#140c08"/>
<circle cx="226.69" cy="88.47" r="3.04" fill="#ffffff"/>
<ellipse cx="281.84" cy="92.08" rx="8.68" ry="9.02" fill="#140c08"/>
<circle cx="278.37" cy="88.47" r="3.04" fill="#ffffff"/>
<rect x="212.48" y="70.32" width="35.36" height="5.44" fill="#5f4c3c"/>
<rect x="264.16" y="70.32" width="35.36" height="5.44" fill="#5f4c3c"/>
<ellipse cx="256.00" cy="113.84" rx="5.44" ry="6.53" fill="#ab8a6c"/>
<rect x="232.88" y="127.44" width="46.24" height="6.80" fill="#9b3030" rx="3.4"/>
<rect x="403.72" y="390.40" width="14.56" height="57.20" fill="#9e9ea0" rx="7.3"/>
<ellipse cx="411.00" cy="390.40" rx="16.12" ry="12.48" fill="#9e9ea0"/>
<ellipse cx="411.00" cy="390.40" rx="10.40" ry="7.80" fill="#4b4b4c"/>
</svg>